<?xml version="1.0" standalone="no"?><!DOCTYPE svg PUBLIC "-//W3C//DTD SVG 1.1//EN" "http://www.w3.org/Graphics/SVG/1.1/DTD/svg11.dtd"><svg t="1647418522119" class="icon" viewBox="0 0 1024 1024" version="1.1" xmlns="http://www.w3.org/2000/svg" p-id="1070" xmlns:xlink="http://www.w3.org/1999/xlink" width="200" height="200"><defs><style type="text/css">@font-face { font-family: feedback-iconfont; src: url("//at.alicdn.com/t/font_1031158_u69w8yhxdu.woff2?t=1630033759944") format("woff2"), url("//at.alicdn.com/t/font_1031158_u69w8yhxdu.woff?t=1630033759944") format("woff"), url("//at.alicdn.com/t/font_1031158_u69w8yhxdu.ttf?t=1630033759944") format("truetype"); }
</style></defs><path d="M193.504 424.512h636.8c13.664 0 25.952-8.032 31.136-20.768a33.28 33.28 0 0 0-7.072-36.32l-200.96-200.96a33.024 33.024 0 0 0-47.168 0 33.024 33.024 0 0 0 0 47.168l143.872 143.872h-556.16c-18.4 0-33.504 15.104-33.504 33.504a32.96 32.96 0 0 0 33.056 33.504z m636.8 208h-636.8c-13.664 0-25.952 8.032-31.136 20.768A30.464 30.464 0 0 0 160 666.016c0 8.48 3.296 17.44 9.92 23.584l167.456 167.936a33.024 33.024 0 0 0 47.168 0 33.024 33.024 0 0 0 0-47.168L274.176 700h556.128c18.4 0 33.504-15.104 33.504-33.504-0.032-18.4-15.104-33.984-33.504-33.984z" fill="#ffffff" p-id="1071"></path></svg>