<?xml version="1.0" standalone="no"?><!DOCTYPE svg PUBLIC "-//W3C//DTD SVG 1.1//EN" "http://www.w3.org/Graphics/SVG/1.1/DTD/svg11.dtd"><svg t="1646902460605" class="icon" viewBox="0 0 1024 1024" version="1.1" xmlns="http://www.w3.org/2000/svg" p-id="866" xmlns:xlink="http://www.w3.org/1999/xlink" width="200" height="200"><defs><style type="text/css">@font-face { font-family: feedback-iconfont; src: url("//at.alicdn.com/t/font_1031158_u69w8yhxdu.woff2?t=1630033759944") format("woff2"), url("//at.alicdn.com/t/font_1031158_u69w8yhxdu.woff?t=1630033759944") format("woff"), url("//at.alicdn.com/t/font_1031158_u69w8yhxdu.ttf?t=1630033759944") format("truetype"); }
</style></defs><path d="M288.81841625 314.87061313a39.94382906 39.94382906 0 0 0-54.32360719-1e-8L101.88129687 448.28300187a75.09439875 75.09439875 0 0 0-19.97191499 51.52753969v3.59494406a75.49383655 75.49383655 0 0 0 19.97191499 51.52753969l132.61351219 133.8118275a39.94382906 39.94382906 0 0 0 53.52473063 0 39.94382906 39.94382906 0 0 0 0-53.52473156L154.60715094 501.8077325l134.21126531-133.41238875a39.94382906 39.94382906 0 0 0 0-53.52473063zM788.91515563 321.26162563a39.94382906 39.94382906 0 0 0-52.32641626 0 39.94382906 39.94382906 0 0 0 0 52.32641625l131.01575907 131.01575906-131.01575906 130.61632031a37.14776062 37.14776062 0 0 0 52.32641624 52.32641625l131.01575907-130.61632031a79.88765813 79.88765813 0 0 0 0-104.6528325zM330.75943719 552.13695781l63.51068812 70.30113844a63.11124937 63.11124937 0 0 0 91.87080656 0l26.36292657-26.36292656a37.14776062 37.14776062 0 0 0-52.32641531-52.32641625l-19.57247626 19.57247625-57.51911437-58.71742875 279.60680344-279.6068025a101.85676406 101.85676406 0 1 0-56.32079907-88.2758625 101.0578875 101.0578875 0 0 0 8.38820438 39.94382906l-284.00062406 282.00343219a63.11124937 63.11124937 0 0 0 0 93.46856062z" p-id="867"></path><path d="M229.30211094 887.26568281a104.25339375 104.25339375 0 1 0 202.51521375-34.35169312l284.40006187-284.40006282a64.30956469 64.30956469 0 0 0 0-93.46855968l-66.70619437-73.49664469a64.30956469 64.30956469 0 0 0-93.46855969 0l-19.971915 19.97191407a37.94663719 37.94663719 0 0 0 53.52473156 53.52473062l19.97191407-19.97191407 59.91574406 59.91574313-282.80230969 282.80230969a103.853955 103.853955 0 0 0-157.37868656 89.47417687z" p-id="868"></path></svg>