<?xml version="1.0" standalone="no"?><!DOCTYPE svg PUBLIC "-//W3C//DTD SVG 1.1//EN" "http://www.w3.org/Graphics/SVG/1.1/DTD/svg11.dtd"><svg t="1646902119691" class="icon" viewBox="0 0 1024 1024" version="1.1" xmlns="http://www.w3.org/2000/svg" p-id="805" xmlns:xlink="http://www.w3.org/1999/xlink" width="200" height="200"><defs><style type="text/css">@font-face { font-family: feedback-iconfont; src: url("//at.alicdn.com/t/font_1031158_u69w8yhxdu.woff2?t=1630033759944") format("woff2"), url("//at.alicdn.com/t/font_1031158_u69w8yhxdu.woff?t=1630033759944") format("woff"), url("//at.alicdn.com/t/font_1031158_u69w8yhxdu.ttf?t=1630033759944") format("truetype"); }
</style></defs><path d="M28.79999967 396.80000033h68.266667v286.72c-23.893333 13.653333-47.786667 27.306667-68.266667 44.373333V806.40000033h44.373334c119.466667-102.4 273.066667-163.84 433.493333-163.84S820.69333367 704.00000033 940.15999967 806.40000033H984.53333367v-81.92c-20.48-17.066667-44.373333-30.72-68.266667-44.373334V396.80000033h85.333333V328.53333333H28.79999967v68.266667z m716.8 0h102.4v252.586666c-34.133333-13.653333-68.266667-27.306667-102.4-37.546666V396.80000033z m-204.8 0h136.533334v197.973333c-44.373333-10.24-92.16-17.066667-136.533334-17.066667V396.80000033z m-204.8 0h136.533334v180.906666c-44.373333 3.413333-92.16 6.826667-136.533334 17.066667V396.80000033z m-170.666666 0h102.4v215.04c-34.133333 10.24-68.266667 23.893333-102.4 37.546666V396.80000033zM28.79999967 226.13333333v68.266667h972.8V226.13333333H28.79999967z" p-id="806"></path></svg>